<?xml version="1.0" standalone="no"?>
<!DOCTYPE svg PUBLIC "-//W3C//DTD SVG 20010904//EN"
 "http://www.w3.org/TR/2001/REC-SVG-20010904/DTD/svg10.dtd">
<svg version="1.0" xmlns="http://www.w3.org/2000/svg"
 width="256.000000pt" height="256.000000pt" viewBox="0 0 256.000000 256.000000"
 preserveAspectRatio="xMidYMid meet">

<g transform="translate(0.000000,256.000000) scale(0.100000,-0.100000)"
fill="#000000" stroke="none">
<path d="M1214 2490 c-29 -16 -54 -26 -58 -23 -3 4 -6 1 -6 -5 0 -6 -16 -16
-35 -23 -19 -7 -35 -16 -35 -20 0 -4 -12 -11 -27 -17 -36 -12 -802 -449 -825
-469 -17 -15 -18 -58 -18 -623 0 -474 3 -610 12 -618 24 -18 823 -469 846
-476 12 -4 22 -12 22 -17 0 -5 3 -8 8 -7 13 3 62 -25 62 -35 0 -6 3 -8 6 -4 4
3 26 -5 51 -18 24 -14 46 -25 48 -25 3 0 5 123 5 273 l0 274 -97 6 c-54 4
-135 7 -181 7 -75 0 -85 2 -107 25 -34 33 -34 83 1 116 24 23 34 24 165 27
l139 4 0 249 0 249 -59 0 c-33 0 -63 5 -67 11 -6 10 70 128 163 252 31 42 43
67 43 92 l0 35 -245 0 -245 0 0 -305 0 -305 146 0 146 0 29 -29 c31 -31 36
-55 18 -94 -20 -45 -42 -48 -248 -45 l-193 3 -34 37 -34 38 0 387 c0 367 1
390 19 417 36 54 43 55 354 56 l287 0 0 315 c0 173 -1 315 -2 315 -2 0 -26
-13 -54 -30z"/>
</g>
</svg>
